<?xml version="1.0" encoding="UTF-8" standalone="no"?>
<svg
   xmlns:dc="http://purl.org/dc/elements/1.1/"
   xmlns:cc="http://creativecommons.org/ns#"
   xmlns:rdf="http://www.w3.org/1999/02/22-rdf-syntax-ns#"
   xmlns:svg="http://www.w3.org/2000/svg"
   xmlns="http://www.w3.org/2000/svg"
   xmlns:sodipodi="http://sodipodi.sourceforge.net/DTD/sodipodi-0.dtd"
   xmlns:inkscape="http://www.inkscape.org/namespaces/inkscape"
   width="48"
   height="48"
   viewBox="0 0 48 48"
   fill="none"
   version="1.1"
   id="svg25"
   sodipodi:docname="github.svg"
   inkscape:version="0.92.4 (33fec40, 2019-01-16)">
  <metadata
     id="metadata29">
    <rdf:RDF>
      <cc:Work
         rdf:about="">
        <dc:format>image/svg+xml</dc:format>
        <dc:type
           rdf:resource="http://purl.org/dc/dcmitype/StillImage" />
      </cc:Work>
    </rdf:RDF>
  </metadata>
  <sodipodi:namedview
     pagecolor="#ffffff"
     bordercolor="#666666"
     borderopacity="1"
     objecttolerance="10"
     gridtolerance="10"
     guidetolerance="10"
     inkscape:pageopacity="0"
     inkscape:pageshadow="2"
     inkscape:window-width="1325"
     inkscape:window-height="713"
     id="namedview27"
     showgrid="false"
     inkscape:zoom="9.8333333"
     inkscape:cx="24.27228"
     inkscape:cy="22.261967"
     inkscape:window-x="41"
     inkscape:window-y="27"
     inkscape:window-maximized="1"
     inkscape:current-layer="svg25" />
  <g
     filter="url(#filter0_d)"
     id="g6">
    <ellipse
       cx="23.949152"
       cy="22.135593"
       id="circle2"
       rx="15.57627"
       ry="17.864407"
       style="fill:#ffffff;stroke-width:0.83405769" />
    <path
       d="M41.3169 9.96085C39.5284 6.89656 37.1025 4.47056 34.0385 2.6823C30.974 0.893948 27.6286 0 23.9997 0C20.3713 0 17.0247 0.894222 13.9608 2.6823C10.8966 4.47047 8.47074 6.89656 6.6823 9.96085C4.89413 13.025 4 16.3712 4 19.9991C4 24.3572 5.27147 28.276 7.81504 31.7566C10.3583 35.2376 13.6439 37.6463 17.6714 38.9829C18.1403 39.07 18.4873 39.0087 18.713 38.8009C18.9387 38.5927 19.0515 38.3321 19.0515 38.0199C19.0515 37.9679 19.047 37.4993 19.0383 36.6138C19.0294 35.7282 19.0252 34.9557 19.0252 34.2965L18.4262 34.4001C18.0443 34.4701 17.5625 34.4997 16.9809 34.4913C16.3995 34.4832 15.796 34.4223 15.1711 34.309C14.546 34.1967 13.9645 33.9363 13.4263 33.5283C12.8883 33.1203 12.5064 32.5863 12.2807 31.927L12.0203 31.3278C11.8467 30.9288 11.5734 30.4856 11.2001 29.9999C10.8268 29.5136 10.4493 29.184 10.0674 29.0104L9.88504 28.8799C9.76355 28.7931 9.65082 28.6885 9.54656 28.5671C9.4424 28.4457 9.36442 28.3242 9.31234 28.2026C9.26016 28.0808 9.3034 27.9809 9.44249 27.9026C9.58159 27.8242 9.83296 27.7862 10.1977 27.7862L10.7183 27.864C11.0656 27.9336 11.4951 28.1415 12.0074 28.4889C12.5195 28.836 12.9404 29.2873 13.2703 29.8426C13.6698 30.5546 14.1511 31.0971 14.7156 31.4704C15.2797 31.8438 15.8483 32.0301 16.4211 32.0301C16.9939 32.0301 17.4887 31.9867 17.9055 31.9003C18.3219 31.8135 18.7125 31.6829 19.0773 31.5095C19.2335 30.3458 19.6589 29.4519 20.3531 28.827C19.3637 28.723 18.4741 28.5664 17.6839 28.3582C16.8942 28.1497 16.0782 27.8113 15.2363 27.3421C14.394 26.8735 13.6952 26.2917 13.1399 25.5976C12.5844 24.9031 12.1285 23.9914 11.7729 22.8632C11.4171 21.7346 11.2391 20.4327 11.2391 18.9571C11.2391 16.856 11.925 15.0682 13.2966 13.5924C12.6541 12.0128 12.7147 10.2421 13.4787 8.28031C13.9822 8.12389 14.7288 8.24127 15.7183 8.63174C16.7079 9.02239 17.4325 9.35704 17.8927 9.6345C18.353 9.91187 18.7217 10.1469 18.9996 10.3375C20.6144 9.88633 22.2809 9.66068 23.9995 9.66068C25.7181 9.66068 27.3849 9.88633 28.9999 10.3375L29.9894 9.71285C30.6661 9.29602 31.4652 8.91404 32.3848 8.5668C33.3049 8.21975 34.0085 8.12416 34.4948 8.28058C35.2758 10.2424 35.3454 12.0131 34.7027 13.5926C36.0741 15.0684 36.7603 16.8568 36.7603 18.9573C36.7603 20.4329 36.5817 21.739 36.2265 22.8763C35.8707 24.0137 35.4109 24.9246 34.8469 25.6107C34.2822 26.2966 33.579 26.8739 32.7371 27.3424C31.8951 27.8112 31.0788 28.1496 30.2891 28.3581C29.499 28.5666 28.6094 28.7233 27.62 28.8274C28.5224 29.6084 28.9737 30.8411 28.9737 32.525V38.0192C28.9737 38.3313 29.0823 38.5919 29.2995 38.8002C29.5165 39.008 29.8592 39.0692 30.328 38.9821C34.3561 37.6456 37.6417 35.2369 40.1849 31.7559C42.7278 28.2753 43.9997 24.3564 43.9997 19.9984C43.9988 16.3709 43.1042 13.025 41.3169 9.96085Z"
       fill="black"
       id="path4" />
  </g>
  <defs
     id="defs23">
    <filter
       id="filter0_d"
       x="0"
       y="0"
       width="48"
       height="48"
       filterUnits="userSpaceOnUse"
       color-interpolation-filters="sRGB">
      <feFlood
         flood-opacity="0"
         result="BackgroundImageFix"
         id="feFlood8" />
      <feColorMatrix
         in="SourceAlpha"
         type="matrix"
         values="0 0 0 0 0 0 0 0 0 0 0 0 0 0 0 0 0 0 127 0"
         id="feColorMatrix10" />
      <feOffset
         dy="4"
         id="feOffset12" />
      <feGaussianBlur
         stdDeviation="2"
         id="feGaussianBlur14" />
      <feColorMatrix
         type="matrix"
         values="0 0 0 0 0 0 0 0 0 0 0 0 0 0 0 0 0 0 0.55 0"
         id="feColorMatrix16" />
      <feBlend
         mode="normal"
         in2="BackgroundImageFix"
         result="effect1_dropShadow"
         id="feBlend18" />
      <feBlend
         mode="normal"
         in="SourceGraphic"
         in2="effect1_dropShadow"
         result="shape"
         id="feBlend20" />
    </filter>
  </defs>
</svg>
