<svg width="48" height="48" viewBox="0 0 48 48" fill="none" xmlns="http://www.w3.org/2000/svg">
<g filter="url(#filter0_d)">
<path d="M24 40C35.0457 40 44 31.0457 44 20C44 8.9543 35.0457 0 24 0C12.9543 0 4 8.9543 4 20C4 31.0457 12.9543 40 24 40Z" fill="#6C27B3"/>
<path d="M33.2743 10.3845C30.8847 10.687 28.3931 10.6765 25.8856 10.4377C22.3839 10.1684 17.2661 8.55218 15.3806 11.7845C12.3515 16.9592 13.8455 23.5841 14.5513 29.4469L25.0777 39.9709C35.2642 39.4301 43.4281 31.2673 43.9707 21.0811L33.2743 10.3845Z" fill="#501A96"/>
<path d="M28.627 8.55219H19.3727C15.6118 8.55219 12.5521 11.6119 12.5521 15.3728V24.6271C12.5521 28.3879 15.6118 31.4478 19.3728 31.4478H28.6271C32.3879 31.4478 35.4478 28.388 35.4478 24.6271V15.3728C35.4478 11.6119 32.388 8.55219 28.627 8.55219ZM33.1445 24.6272C33.1445 27.122 31.122 29.1445 28.6271 29.1445H19.3728C16.878 29.1445 14.8555 27.122 14.8555 24.6272V15.3729C14.8555 12.878 16.878 10.8555 19.3728 10.8555H28.6271C31.122 10.8555 33.1445 12.8781 33.1445 15.3729V24.6272Z" fill="white"/>
<path d="M24 14.0783C20.7348 14.0783 18.0782 16.7348 18.0782 20C18.0782 23.2649 20.7348 25.9215 24 25.9215C27.2651 25.9215 29.9215 23.2652 29.9215 20C29.9215 16.7348 27.2651 14.0783 24 14.0783ZM24 23.6182C22.0016 23.6182 20.3815 21.9984 20.3815 20C20.3815 18.0016 22.0016 16.3816 24 16.3816C25.9983 16.3816 27.6182 18.0015 27.6182 20C27.6182 21.9984 25.9983 23.6182 24 23.6182Z" fill="white"/>
<path d="M31.3516 14.123C31.3516 14.9066 30.7163 15.5419 29.9327 15.5419C29.1491 15.5419 28.5137 14.9066 28.5137 14.123C28.5137 13.3393 29.1491 12.704 29.9327 12.704C30.7165 12.704 31.3516 13.3391 31.3516 14.123Z" fill="#D1D1D1"/>
<path d="M28.6271 8.55219H23.9551V10.8555H28.6271C31.122 10.8555 33.1445 12.8781 33.1445 15.3729V24.6272C33.1445 27.122 31.122 29.1445 28.6271 29.1445H23.9551V31.4478H28.6271C32.3879 31.4478 35.4477 28.388 35.4477 24.6271V15.3728C35.4477 11.6119 32.388 8.55219 28.6271 8.55219Z" fill="#D1D1D1"/>
<path d="M23.9999 14.0783C23.9848 14.0783 23.9702 14.0794 23.9551 14.0794V16.3827C23.97 16.3825 23.9848 16.3816 23.9999 16.3816C25.9983 16.3816 27.6181 18.0015 27.6181 20C27.6181 21.9984 25.9984 23.6182 23.9999 23.6182C23.9848 23.6182 23.97 23.6173 23.9551 23.6171V25.9204C23.9702 25.9205 23.9848 25.9215 23.9999 25.9215C27.2651 25.9215 29.9214 23.2651 29.9214 20C29.9214 16.7348 27.2651 14.0783 23.9999 14.0783Z" fill="#D1D1D1"/>
</g>
<defs>
<filter id="filter0_d" x="0" y="0" width="48" height="48" filterUnits="userSpaceOnUse" color-interpolation-filters="sRGB">
<feFlood flood-opacity="0" result="BackgroundImageFix"/>
<feColorMatrix in="SourceAlpha" type="matrix" values="0 0 0 0 0 0 0 0 0 0 0 0 0 0 0 0 0 0 127 0"/>
<feOffset dy="4"/>
<feGaussianBlur stdDeviation="2"/>
<feColorMatrix type="matrix" values="0 0 0 0 0 0 0 0 0 0 0 0 0 0 0 0 0 0 0.55 0"/>
<feBlend mode="normal" in2="BackgroundImageFix" result="effect1_dropShadow"/>
<feBlend mode="normal" in="SourceGraphic" in2="effect1_dropShadow" result="shape"/>
</filter>
</defs>
</svg>
