<?xml version="1.0" standalone="no"?>
<!DOCTYPE svg PUBLIC "-//W3C//DTD SVG 20010904//EN"
 "http://www.w3.org/TR/2001/REC-SVG-20010904/DTD/svg10.dtd">
<svg version="1.0" xmlns="http://www.w3.org/2000/svg"
 width="573.000000pt" height="573.000000pt" viewBox="0 0 573.000000 573.000000"
 preserveAspectRatio="xMidYMid meet">
<metadata>
Created by potrace 1.11, written by Peter Selinger 2001-2013
</metadata>
<g transform="translate(0.000000,573.000000) scale(0.100000,-0.100000)"
fill="#000000" stroke="none">
<path d="M1830 5716 c-114 -33 -197 -82 -281 -167 -90 -89 -91 -94 -91 -217 0
-119 17 -181 73 -266 72 -108 237 -215 369 -238 77 -14 70 -10 75 -39 30 -165
72 -281 147 -405 163 -272 411 -486 1068 -924 168 -112 307 -207 308 -212 2
-4 9 -8 16 -8 26 0 54 -44 51 -80 -2 -19 -6 -82 -10 -140 -4 -58 -8 -121 -11
-140 -18 -161 -20 -172 -45 -282 -24 -108 -77 -278 -87 -278 -15 0 -80 76
-100 116 l-21 41 34 33 c105 102 109 321 8 425 -60 62 -132 89 -233 90 -76 0
-91 -4 -139 -30 -106 -58 -156 -156 -149 -290 8 -158 98 -261 245 -281 50 -6
51 -7 79 -67 28 -60 151 -199 184 -209 13 -4 11 -13 -8 -54 -61 -126 -179
-276 -244 -310 -108 -56 -193 -8 -388 216 -35 41 -67 77 -71 80 -23 19 -342
426 -358 458 -38 74 -46 197 -17 266 13 31 16 32 104 44 279 37 410 153 414
369 2 81 -8 128 -41 198 -37 78 -97 137 -180 178 -63 31 -71 32 -186 32 -114
0 -123 -2 -185 -31 -208 -100 -311 -331 -225 -506 27 -56 70 -109 117 -144
l27 -21 -32 -64 c-34 -69 -41 -72 -102 -43 -34 16 -79 56 -281 252 -77 75
-166 162 -198 192 -32 30 -75 80 -96 110 -44 65 -83 165 -75 191 4 10 8 31 11
46 3 16 11 56 19 91 8 34 17 77 20 95 4 17 15 75 27 127 11 52 21 100 22 105
2 6 8 36 15 67 l12 57 64 21 c129 43 214 129 250 254 40 137 8 275 -89 382
-128 143 -346 166 -514 54 -164 -110 -216 -344 -116 -516 33 -56 74 -99 147
-153 31 -23 57 -46 57 -50 0 -5 -11 -62 -25 -127 -14 -66 -28 -132 -31 -149
-3 -16 -11 -57 -19 -90 -8 -33 -24 -104 -36 -158 -17 -79 -24 -97 -36 -93 -9
4 -35 11 -59 17 -38 10 -44 15 -45 38 -1 39 -7 65 -30 134 -54 163 -159 244
-324 252 -86 5 -143 -7 -214 -42 -287 -142 -276 -565 17 -705 130 -62 233 -41
429 88 44 30 87 54 93 54 36 0 149 -43 175 -67 65 -59 124 -111 205 -183 46
-41 94 -84 106 -95 19 -17 106 -94 168 -148 78 -68 290 -286 371 -381 204
-239 409 -546 541 -807 l44 -88 -33 5 c-17 4 -57 13 -87 20 -30 8 -62 16 -70
18 -93 23 -264 107 -384 190 -144 98 -321 288 -390 418 l-19 36 35 43 c68 83
83 124 83 224 0 77 -4 98 -27 147 -31 67 -96 140 -152 173 -59 33 -191 68
-261 67 -104 0 -224 -73 -270 -162 -9 -17 -19 -30 -23 -30 -20 0 -44 -77 -43
-135 2 -94 13 -141 54 -218 37 -72 101 -130 187 -171 58 -28 75 -31 158 -31
50 0 92 -3 92 -7 0 -4 32 -55 71 -113 71 -106 215 -263 314 -342 220 -175 529
-304 789 -329 33 -3 65 -8 69 -11 4 -3 21 -33 37 -68 91 -199 90 -170 25 -497
-14 -70 -85 -320 -127 -448 -56 -168 -62 -202 -42 -240 37 -69 96 -93 288
-117 114 -15 325 -9 406 11 93 23 114 36 140 86 26 52 27 98 2 190 -18 66 -25
97 -47 210 -11 53 -34 218 -40 281 -4 36 -8 79 -10 95 -6 47 -6 317 0 344 3
14 11 50 18 80 l13 55 294 146 295 146 35 -23 c110 -73 277 -54 376 43 85 83
101 223 38 343 -31 60 -51 82 -104 115 -40 25 -55 29 -130 29 -77 1 -92 -2
-152 -32 -102 -50 -159 -144 -154 -255 l2 -49 -213 -106 c-117 -58 -215 -103
-218 -101 -2 3 1 23 7 45 6 21 12 41 13 44 1 3 14 47 30 99 28 91 31 96 114
182 119 122 251 218 406 294 113 55 243 104 317 119 144 29 182 35 275 40 l53
3 11 -41 c25 -92 71 -155 152 -209 148 -98 343 -91 466 17 67 60 121 180 126
280 5 110 -43 228 -118 291 -93 78 -233 113 -342 85 -46 -12 -113 -40 -134
-55 -40 -29 -81 -75 -81 -90 0 -9 -11 -32 -24 -51 -24 -35 -24 -35 -112 -39
-49 -2 -120 -9 -159 -15 -38 -7 -83 -14 -100 -16 -136 -21 -419 -135 -555
-223 -20 -13 -23 -14 -16 -1 35 60 154 182 327 335 166 148 503 367 763 496
106 52 107 53 194 51 48 -1 105 -3 127 -5 62 -4 171 19 225 49 272 148 263
553 -14 693 -148 75 -336 46 -455 -70 -83 -81 -115 -176 -113 -334 1 -144 -15
-179 -111 -247 -228 -163 -817 -547 -841 -549 -6 0 -20 -2 -30 -4 -28 -5 -53
11 -73 48 -20 35 -21 105 -10 707 8 431 3 416 159 493 133 66 191 89 312 127
90 27 90 27 110 7 12 -11 50 -34 86 -51 59 -28 74 -31 160 -31 86 0 101 3 163
32 248 118 309 440 120 631 -150 151 -395 158 -553 16 -73 -66 -113 -163 -125
-299 -3 -38 -7 -79 -9 -90 -3 -11 -5 -23 -5 -27 -1 -5 -6 -8 -13 -8 -28 0
-194 -67 -326 -132 -194 -96 -239 -97 -319 -11 -25 27 -67 71 -95 100 l-51 52
37 82 c96 210 80 355 -56 489 -64 63 -154 102 -248 108 -317 18 -514 -292
-370 -584 63 -128 153 -172 355 -173 66 0 126 0 133 -1 13 0 52 -39 213 -211
98 -104 136 -170 171 -299 22 -79 36 -253 28 -331 l-5 -46 -200 138 c-110 76
-240 166 -290 201 -49 35 -97 68 -106 73 -44 26 -264 187 -349 256 -203 164
-324 306 -405 474 -68 139 -105 295 -71 295 24 0 129 60 164 93 53 50 124 146
138 186 17 49 9 172 -16 245 -51 151 -172 275 -330 341 -77 32 -198 42 -270
21z"/>
</g>
</svg>
